<svg xmlns="http://www.w3.org/2000/svg" width="640pt" height="640" viewBox="0 0 640 480"><g data-name="Layer"><clipPath id="a"><path transform="matrix(1 0 0 -1 0 480)" d="M0 480h640V0H0z"/></clipPath><g clip-path="url(#a)"><path d="M291.743 87.462c36.85 0 73.69-.043 110.54.01-.257 10.343.43 20.909-.322 31.1-22.306.14-44.634.01-66.95.054.043 13.814-.086 27.616.065 41.419 18.952-.075 37.893-.021 56.844-.021v30.615c-18.972.02-37.935 0-56.91.01v69.875c-14.425 0-28.841.01-43.267-.011zM259.891 367.043c7.611-6.912 19.05-7.901 28.616-5.171 5.945 1.656 11.803 6.021 12.921 12.416.43 3.731.828 8.02-1.526 11.244-2.386 3.462-6.428 5.279-10.395 6.268 5.87 1.129 12.17 4.461 13.845 10.632 1.108 5.976.882 12.942-3.44 17.673-5.159 5.858-13.286 7.9-20.822 8.104-6.686-.118-13.824-1.225-19.178-5.558-4.138-3.203-6.148-8.309-7.202-13.275 5.106-.474 10.244-.097 15.372-.247 1.205 7.535 11.17 9.707 16.705 5.504 3.27-2.709 3.118-7.687 2.13-11.417-2.85-5.826-10.396-5.127-15.825-5.095-.01-3.687-.01-7.364 0-11.04 3.688-.086 7.568.462 11.051-1.064 4.096-1.957 4.322-7.794 2.42-11.341-4.409-5.257-14.793-2.731-15.234 4.579-5.149.021-10.298.054-15.447-.032.774-4.526 2.483-9.074 6.01-12.18M327.497 400.496c.215 4.085-.87 8.622 1.43 12.32 3.117 4.202 9.76 4.353 13.824 1.515 3.654-3.139 3.278-8.546 2.773-12.878-.527-3.892-4.773-6.052-8.406-5.482-3.73.043-7.01 1.99-9.62 4.525m-5.16-36.624c8.147-4.343 18.22-4.235 26.787-1.16 6.665 2.407 11.233 8.985 11.362 16.05-4.74 0-9.49.052-14.232-.034-.979-7.503-11.63-8.654-16.362-4.085-3.514 4.236-2.149 10.073-2.417 15.115 8.74-8.33 25.326-6.89 31.711 3.665 2.892 4.601 2.946 10.277 2.601 15.522-.526 7.57-5.966 14.223-12.92 16.975-8.192 3.224-17.76 3.16-25.81-.463-6.763-3.064-11.32-10.083-11.632-17.457-.14-8.32-.054-16.63-.043-24.95.086-7.687 4.074-15.459 10.954-19.178M392.2 372.644c-3.806 1.269-5.418 5.504-5.526 9.213-.16 7.557-.01 15.125-.076 22.692-.02 3.645.56 7.945 3.774 10.213 4.407 2.666 11.771 1.849 13.566-3.634 1.763-5.944.634-12.244.947-18.35-.302-5.578.977-11.6-1.559-16.822-2.043-3.935-7.278-4.72-11.126-3.312m-3.892-11.352c8.041-1.515 17.006-.946 24.004 3.656 6.214 4.18 8.825 11.974 8.707 19.209-.118 7.923.195 15.867-.16 23.79-.495 7.77-5.279 15.372-12.76 18.092-8.976 3.375-19.737 3.095-28.068-1.892-6.32-3.816-9.47-11.256-9.535-18.437-.054-6.837.021-13.684-.032-20.532-.054-5.59.956-11.502 4.493-15.995 3.235-4.214 8.213-6.815 13.351-7.891" fill="#fff"/><path d="M291.743 87.462v173.05c14.426.022 28.842.012 43.268.012V190.65c18.974-.011 37.937.01 56.909-.011v-30.615c-18.951 0-37.892-.054-56.844.02-.151-13.802-.022-27.604-.065-41.418 22.316-.043 44.644.086 66.95-.054.752-10.191.065-20.757.323-31.1-36.851-.053-73.691-.01-110.541-.01M178.569 17.868c3.042.269 6.085.226 9.137.194 94.266 0 188.53.01 282.806 0 3.902.053 7.869-.237 11.718.666 9.342 2.526 16.286 11.77 16.168 21.457.032 15.694 0 31.378.01 47.073-.021 81.064.033 162.118-.021 243.183-106.703.118-213.395-.098-320.086.107-.011-79.27 0-158.528-.011-237.786 1.128-17.866.354-35.797.58-53.696-.097-6.955.269-13.92-.28-20.865z" fill="#ff6b00"/><path d="M168.851 23.436c3.214-1.795 6.15-4.214 9.74-5.235.548 6.944.182 13.91.28 20.865-.227 17.898.547 35.83-.582 53.695.011 79.258 0 158.517.011 237.786-10.32 5.988-20.446 12.33-30.723 18.414-12.244 7.428-24.53 14.803-36.796 22.21.01-104.188.075-208.375-.033-312.562 19.243-11.922 38.753-23.423 58.103-35.173" fill="#ff9447"/><path d="M388.309 361.292c-5.14 1.075-10.116 3.677-13.352 7.891-3.537 4.493-4.546 10.405-4.493 15.995.054 6.847-.021 13.695.033 20.532.064 7.181 3.213 14.62 9.535 18.436 8.33 4.988 19.09 5.267 28.067 1.892 7.48-2.72 12.266-10.32 12.76-18.092.355-7.923.043-15.867.16-23.79.119-7.234-2.492-15.027-8.706-19.209-6.998-4.601-15.963-5.171-24.004-3.655m-65.972 2.58c-6.88 3.719-10.868 11.491-10.954 19.178-.011 8.32-.096 16.63.043 24.95.312 7.374 4.87 14.394 11.63 17.457 8.053 3.623 17.62 3.688 25.812.463 6.955-2.752 12.394-9.406 12.92-16.975.345-5.245.292-10.921-2.6-15.522-6.386-10.556-22.973-11.996-31.712-3.665.269-5.042-1.097-10.879 2.418-15.114 4.73-4.57 15.383-3.419 16.36 4.085 4.742.085 9.493.032 14.234.032-.13-7.064-4.698-13.642-11.363-16.05-8.567-3.074-18.64-3.182-26.788 1.161m-62.445 3.171c-3.526 3.106-5.236 7.654-6.01 12.18 5.15.086 10.299.053 15.448.032.44-7.31 10.825-9.836 15.232-4.579 1.903 3.547 1.677 9.384-2.42 11.341-3.481 1.526-7.362.978-11.05 1.064-.01 3.676-.01 7.353 0 11.04 5.429-.032 12.976-.731 15.824 5.095.99 3.73 1.14 8.708-2.128 11.417-5.536 4.203-15.501 2.031-16.705-5.504-5.128.15-10.266-.227-15.372.247 1.053 4.966 3.063 10.072 7.202 13.275 5.354 4.333 12.49 5.44 19.178 5.558 7.535-.204 15.662-2.246 20.822-8.104 4.32-4.731 4.547-11.697 3.44-17.673-1.677-6.171-7.976-9.503-13.846-10.632 3.967-.989 8.009-2.806 10.395-6.268 2.355-3.224 1.957-7.513 1.527-11.244-1.118-6.395-6.977-10.76-12.921-12.416-9.568-2.73-21.006-1.741-28.616 5.171M498.409 87.258c10.276-.011 20.552-.032 30.84.011 0 124.956.01 249.911-.01 374.856-119.957 0-239.904.021-359.861-.011-11.835.505-22.08-10.449-21.92-22.058.023-30.358-.213-60.737.12-91.094 10.276-6.084 20.403-12.427 30.723-18.414 106.69-.205 213.383.011 320.086-.108.054-81.064 0-162.118.022-243.182" fill="#923b00"/><path d="M392.2 372.644c3.848-1.408 9.083-.623 11.126 3.312 2.536 5.223 1.257 11.244 1.56 16.823-.314 6.105.815 12.405-.948 18.349-1.795 5.483-9.159 6.3-13.566 3.634-3.214-2.268-3.795-6.568-3.774-10.213.065-7.567-.085-15.135.076-22.692.108-3.71 1.72-7.944 5.526-9.213M327.497 400.496c2.611-2.536 5.891-4.482 9.621-4.525 3.633-.57 7.88 1.59 8.406 5.482.505 4.332.881 9.74-2.773 12.878-4.064 2.838-10.707 2.687-13.824-1.516-2.3-3.697-1.215-8.234-1.43-12.319" fill="#923b00"/></g></g></svg>