<?xml version="1.0" encoding="UTF-8"?>
<!DOCTYPE svg PUBLIC "-//W3C//DTD SVG 1.1//EN" "http://www.w3.org/Graphics/SVG/1.1/DTD/svg11.dtd">
<svg xmlns="http://www.w3.org/2000/svg" version="1.1" width="512px" height="512px" style="shape-rendering:geometricPrecision; text-rendering:geometricPrecision; image-rendering:optimizeQuality; fill-rule:evenodd; clip-rule:evenodd" xmlns:xlink="http://www.w3.org/1999/xlink">
<g><path style="opacity:0.99" fill="#3479b4" d="M 231.5,26.5 C 256.012,26.0528 280.346,27.8861 304.5,32C 329.417,38.2503 344.917,53.7503 351,78.5C 351.667,117.167 351.667,155.833 351,194.5C 345.586,220.582 329.752,235.748 303.5,240C 263.833,240.333 224.167,240.667 184.5,241C 154,247.5 135.5,266 129,296.5C 128.5,315.497 128.333,334.497 128.5,353.5C 113.496,353.667 98.4963,353.5 83.5,353C 63.012,348.854 48.8453,337.02 41,317.5C 24.2671,272.051 23.6005,226.384 39,180.5C 48.6901,158.148 65.5234,144.648 89.5,140C 141.499,139.5 193.499,139.333 245.5,139.5C 245.5,129.167 245.5,118.833 245.5,108.5C 210.5,108.5 175.5,108.5 140.5,108.5C 140.138,94.7924 140.638,81.1258 142,67.5C 145.51,53.2887 154.01,43.4554 167.5,38C 188.429,31.2356 209.762,27.4022 231.5,26.5 Z"/></g>
<g><path style="opacity:1" fill="#fcfdfe" d="M 182.5,50.5 C 202.222,51.7186 209.055,61.7186 203,80.5C 192.298,92.3985 181.631,92.3985 171,80.5C 165.15,66.5632 168.983,56.5632 182.5,50.5 Z"/></g>
<g><path style="opacity:0.992" fill="#ffca1d" d="M 382.5,155.5 C 399.17,155.333 415.837,155.5 432.5,156C 446.439,159.278 456.939,167.111 464,179.5C 471.405,194.383 476.405,210.05 479,226.5C 487.657,267.234 482.657,306.234 464,343.5C 456.759,357.738 445.259,366.238 429.5,369C 374.501,369.5 319.501,369.667 264.5,369.5C 264.5,379.833 264.5,390.167 264.5,400.5C 299.5,400.5 334.5,400.5 369.5,400.5C 375.929,434.151 363.596,457.651 332.5,471C 289.076,488.11 245.41,488.777 201.5,473C 182.655,467.149 169.155,455.316 161,437.5C 160.118,434.211 159.452,430.877 159,427.5C 158.333,390.5 158.333,353.5 159,316.5C 162.42,292.745 175.586,277.245 198.5,270C 240.129,268.695 281.795,268.028 323.5,268C 350.783,263.055 369.283,247.555 379,221.5C 380.722,215.282 381.722,208.949 382,202.5C 382.5,186.837 382.667,171.17 382.5,155.5 Z"/></g>
<g><path style="opacity:1" fill="#fffefc" d="M 308.5,421.5 C 320.485,419.574 328.651,424.24 333,435.5C 333.8,452.034 325.966,459.867 309.5,459C 296.655,453.142 292.821,443.642 298,430.5C 300.84,426.673 304.34,423.673 308.5,421.5 Z"/></g>
</svg>
